<svg xmlns="http://www.w3.org/2000/svg" viewBox="0 0 200 60" width="200" height="60">
  <!-- Background Rectangle (Optional) -->
  <rect width="200" height="60" fill="#1E3A8A" rx="10" />

  <!-- Brain Icon (Detailed Representation) -->
  <path d="M20 30 Q30 20 40 30 T60 30 Q70 20 80 30 T100 30 Q110 20 120 30 T140 30 Q150 20 160 30" 
        stroke="#FFFFFF" stroke-width="2" fill="none" />
  <path d="M20 30 Q30 40 40 30 T60 30 Q70 40 80 30 T100 30 Q110 40 120 30 T140 30 Q150 40 160 30" 
        stroke="#FFFFFF" stroke-width="2" fill="none" />
  <circle cx="20" cy="30" r="3" fill="#FFFFFF" />
  <circle cx="160" cy="30" r="3" fill="#FFFFFF" />

  <!-- Neural Connections (Detailed Representation) -->
  <path d="M80 30 Q90 40 100 30 T120 30 Q130 40 140 30" stroke="#FFD700" stroke-width="2" fill="none" />
  <path d="M60 30 Q70 20 80 30 T100 30 Q110 20 120 30" stroke="#FFD700" stroke-width="2" fill="none" />
  <circle cx="80" cy="30" r="2" fill="#FFD700" />
  <circle cx="100" cy="30" r="2" fill="#FFD700" />
  <circle cx="120" cy="30" r="2" fill="#FFD700" />

  <!-- Logo Text -->
  <text x="100" y="45" font-family="Arial, sans-serif" font-size="24" font-weight="bold" fill="#FFFFFF" text-anchor="middle">
    Algorizz
  </text>
</svg>