<svg width="1068" height="252" viewBox="0 0 1068 252" fill="none" xmlns="http://www.w3.org/2000/svg">
<path d="M40 42C40 40.8954 40.8954 40 42 40H1026C1027.1 40 1028 40.8954 1028 42V210C1028 211.105 1027.1 212 1026 212H42C40.8954 212 40 211.105 40 210V42Z" fill="#1E1E1E"/>
<path d="M42 41H1026V39H42V41ZM1027 42V210H1029V42H1027ZM1026 211H42V213H1026V211ZM41 210V42H39V210H41ZM42 211C41.4477 211 41 210.552 41 210H39C39 211.657 40.3431 213 42 213V211ZM1027 210C1027 210.552 1026.55 211 1026 211V213C1027.66 213 1029 211.657 1029 210H1027ZM1026 41C1026.55 41 1027 41.4477 1027 42H1029C1029 40.3431 1027.66 39 1026 39V41ZM42 39C40.3431 39 39 40.3431 39 42H41C41 41.4477 41.4477 41 42 41V39Z" fill="#1E1E1E" fill-opacity="0.1"/>
<path d="M133.854 52.2488C134.836 50.7042 137.091 50.7042 138.073 52.2488L226.574 191.408C227.632 193.073 226.437 195.25 224.464 195.25H47.4632C45.4908 195.25 44.2952 193.073 45.3536 191.408L133.854 52.2488Z" fill="#1E1E1E" stroke="#5754AD"/>
<path opacity="0.46" d="M94.4308 170L136 98L177.569 170H94.4308Z" fill="#1E1E1E" stroke="#5754AD" stroke-width="2"/>
<path d="M577.5 136C577.5 176.593 544.593 209.5 504 209.5C463.407 209.5 430.5 176.593 430.5 136C430.5 95.4071 463.407 62.5 504 62.5C544.593 62.5 577.5 95.4071 577.5 136Z" fill="#1E1E1E" fill-opacity="0.99" stroke="#5754AD"/>
<path d="M543.5 136C543.5 157.815 525.815 175.5 504 175.5C482.185 175.5 464.5 157.815 464.5 136C464.5 114.185 482.185 96.5 504 96.5C525.815 96.5 543.5 114.185 543.5 136Z" fill="#1E1E1E" stroke="#5754AD"/>
<path d="M653.5 189.5C653.5 198.366 646.755 205.5 638.5 205.5C630.245 205.5 623.5 198.366 623.5 189.5C623.5 180.634 630.245 173.5 638.5 173.5C646.755 173.5 653.5 180.634 653.5 189.5Z" fill="#1E1E1E" stroke="#5754AD"/>
<path d="M697.06 179.196C698.357 183.528 701.601 187.007 705.832 188.603L739.244 201.209C753.59 206.622 765.424 188.968 754.967 177.754L711.31 130.938C700.853 119.724 682.416 130.298 686.815 144.987L697.06 179.196Z" fill="#1E1E1E" stroke="#5754AD"/>
<path d="M721.5 107C721.5 139.289 694.209 165.5 660.5 165.5C626.791 165.5 599.5 139.289 599.5 107C599.5 74.7107 626.791 48.5 660.5 48.5C694.209 48.5 721.5 74.7107 721.5 107Z" fill="#1E1E1E" stroke="#5754AD"/>
<path d="M544 130V142" stroke="black"/>
<rect x="794.5" y="48.5" width="42" height="147" fill="#1E1E1E" stroke="#5754AD"/>
<rect x="277.5" y="48.5" width="42" height="147" fill="#1E1E1E" stroke="#5754AD"/>
<path d="M868.034 58.8133C865.424 55.9557 867.4 51.354 871.269 51.2791L927.527 50.1904L987.263 49.0345C990.49 48.972 992.732 52.2268 991.523 55.2193L955.325 144.812C954.084 147.883 950.064 148.607 947.83 146.162L868.034 58.8133Z" fill="#1E1E1E" stroke="#5754AD"/>
<path d="M1017.3 186.648C1021 190.864 1017.98 197.471 1012.37 197.434L893.077 196.663C888.183 196.632 885.078 191.408 887.389 187.094L932.362 103.141C934.505 99.1404 939.985 98.5121 942.978 101.924L1017.3 186.648Z" fill="#1E1E1E" stroke="#5754AD"/>
<line x1="320" y1="195.5" x2="407" y2="195.5" stroke="#5754AD"/>
<line x1="924" y1="172.5" x2="973" y2="172.5" stroke="#5754AD"/>
<line x1="943.859" y1="105.121" x2="914.448" y2="72.3194" stroke="#5754AD"/>
<line x1="504" y1="135.5" x2="577" y2="135.5" stroke="#5754AD"/>
<path d="M964.5 119C964.5 131.482 955.493 141.5 944.5 141.5C933.507 141.5 924.5 131.482 924.5 119C924.5 106.518 933.507 96.5 944.5 96.5C955.493 96.5 964.5 106.518 964.5 119Z" fill="#1E1E1E" stroke="#1E1E1E"/>
<rect x="40" y="4" width="79.4531" height="30" rx="3" fill="#1E1E1E"/>
<rect x="40.5" y="4.5" width="78.4531" height="29" rx="2.5" stroke="white" stroke-opacity="0.0980392"/>
<path d="M47.2969 22H46.2813L49.2188 14H50.2188L53.1563 22H52.1406L49.75 15.2656H49.6875L47.2969 22ZM47.6719 18.875H51.7656V19.7344H47.6719V18.875ZM55.1992 14V22H54.2773V14H55.1992ZM59.3096 24.375C58.8643 24.375 58.4814 24.3177 58.1611 24.2031C57.8408 24.0911 57.5739 23.9427 57.3604 23.7578C57.1494 23.5755 56.9814 23.3802 56.8564 23.1719L57.5908 22.6563C57.6742 22.7656 57.7796 22.8906 57.9072 23.0312C58.0348 23.1745 58.2093 23.2982 58.4307 23.4023C58.6546 23.5091 58.9476 23.5625 59.3096 23.5625C59.7939 23.5625 60.1937 23.4453 60.5088 23.2109C60.8239 22.9766 60.9814 22.6094 60.9814 22.1094V20.8906H60.9033C60.8356 21 60.7393 21.1354 60.6143 21.2969C60.4919 21.4557 60.3148 21.5977 60.083 21.7227C59.8538 21.8451 59.5439 21.9062 59.1533 21.9062C58.6689 21.9062 58.234 21.7917 57.8486 21.5625C57.4658 21.3333 57.1624 21 56.9385 20.5625C56.7171 20.125 56.6064 19.5937 56.6064 18.9687C56.6064 18.3542 56.7145 17.819 56.9307 17.3633C57.1468 16.9049 57.4476 16.5508 57.833 16.3008C58.2184 16.0482 58.6637 15.9219 59.1689 15.9219C59.5596 15.9219 59.8695 15.987 60.0986 16.1172C60.3304 16.2448 60.5075 16.3906 60.6299 16.5547C60.7549 16.7161 60.8512 16.849 60.9189 16.9531H61.0127V16H61.9033V22.1719C61.9033 22.6875 61.7861 23.1068 61.5518 23.4297C61.32 23.7552 61.0075 23.9935 60.6143 24.1445C60.2236 24.2982 59.7887 24.375 59.3096 24.375ZM59.2783 21.0781C59.6481 21.0781 59.9606 20.9935 60.2158 20.8242C60.471 20.6549 60.665 20.4115 60.7979 20.0938C60.9307 19.776 60.9971 19.3958 60.9971 18.9531C60.9971 18.5208 60.932 18.1393 60.8018 17.8086C60.6715 17.4779 60.4788 17.2187 60.2236 17.0312C59.9684 16.8437 59.6533 16.75 59.2783 16.75C58.8877 16.75 58.5622 16.849 58.3018 17.0469C58.0439 17.2448 57.8499 17.5104 57.7197 17.8438C57.5921 18.1771 57.5283 18.5469 57.5283 18.9531C57.5283 19.3698 57.5934 19.7383 57.7236 20.0586C57.8564 20.3763 58.0518 20.6263 58.3096 20.8086C58.57 20.9883 58.8929 21.0781 59.2783 21.0781ZM66.0283 22.125C65.4867 22.125 65.0114 21.9961 64.6025 21.7383C64.1963 21.4805 63.8786 21.1198 63.6494 20.6562C63.4229 20.1927 63.3096 19.651 63.3096 19.0312C63.3096 18.4062 63.4229 17.8607 63.6494 17.3945C63.8786 16.9284 64.1963 16.5664 64.6025 16.3086C65.0114 16.0508 65.4867 15.9219 66.0283 15.9219C66.57 15.9219 67.0439 16.0508 67.4502 16.3086C67.859 16.5664 68.1768 16.9284 68.4033 17.3945C68.6325 17.8607 68.7471 18.4062 68.7471 19.0312C68.7471 19.651 68.6325 20.1927 68.4033 20.6562C68.1768 21.1198 67.859 21.4805 67.4502 21.7383C67.0439 21.9961 66.57 22.125 66.0283 22.125ZM66.0283 21.2969C66.4398 21.2969 66.7783 21.1914 67.0439 20.9805C67.3096 20.7695 67.5062 20.4922 67.6338 20.1484C67.7614 19.8047 67.8252 19.4323 67.8252 19.0312C67.8252 18.6302 67.7614 18.2565 67.6338 17.9102C67.5062 17.5638 67.3096 17.2839 67.0439 17.0703C66.7783 16.8568 66.4398 16.75 66.0283 16.75C65.6169 16.75 65.2783 16.8568 65.0127 17.0703C64.7471 17.2839 64.5505 17.5638 64.4229 17.9102C64.2952 18.2565 64.2314 18.6302 64.2314 19.0312C64.2314 19.4323 64.2952 19.8047 64.4229 20.1484C64.5505 20.4922 64.7471 20.7695 65.0127 20.9805C65.2783 21.1914 65.6169 21.2969 66.0283 21.2969ZM70.1543 22V16H71.0449V16.9062H71.1074C71.2168 16.6094 71.4147 16.3685 71.7012 16.1836C71.9876 15.9987 72.3105 15.9062 72.6699 15.9062C72.7376 15.9062 72.8223 15.9076 72.9238 15.9102C73.0254 15.9128 73.1022 15.9167 73.1543 15.9219V16.8594C73.123 16.8516 73.0514 16.8398 72.9395 16.8242C72.8301 16.806 72.7142 16.7969 72.5918 16.7969C72.3001 16.7969 72.0397 16.8581 71.8105 16.9805C71.584 17.1003 71.4043 17.2669 71.2715 17.4805C71.1413 17.6914 71.0762 17.9323 71.0762 18.2031V22H70.1543ZM74.2471 22V16H75.1689V22H74.2471ZM74.7158 15C74.5361 15 74.3812 14.9388 74.251 14.8164C74.1234 14.694 74.0596 14.5469 74.0596 14.375C74.0596 14.2031 74.1234 14.056 74.251 13.9336C74.3812 13.8112 74.5361 13.75 74.7158 13.75C74.8955 13.75 75.0492 13.8112 75.1768 13.9336C75.307 14.056 75.3721 14.2031 75.3721 14.375C75.3721 14.5469 75.307 14.694 75.1768 14.8164C75.0492 14.9388 74.8955 15 74.7158 15ZM76.6855 22V21.2969L80.0918 16.9219V16.8594H76.7949V16H81.2793V16.7344L77.9668 21.0781V21.1406H81.3887V22H76.6855ZM82.6367 22V21.2969L86.043 16.9219V16.8594H82.7461V16H87.2305V16.7344L83.918 21.0781V21.1406H87.3398V22H82.6367ZM92.7754 14V22H91.8535V14H92.7754ZM96.9014 22.125C96.3597 22.125 95.8844 21.9961 95.4756 21.7383C95.0693 21.4805 94.7516 21.1198 94.5225 20.6562C94.2959 20.1927 94.1826 19.651 94.1826 19.0312C94.1826 18.4062 94.2959 17.8607 94.5225 17.3945C94.7516 16.9284 95.0693 16.5664 95.4756 16.3086C95.8844 16.0508 96.3597 15.9219 96.9014 15.9219C97.443 15.9219 97.917 16.0508 98.3232 16.3086C98.7321 16.5664 99.0498 16.9284 99.2764 17.3945C99.5055 17.8607 99.6201 18.4062 99.6201 19.0312C99.6201 19.651 99.5055 20.1927 99.2764 20.6562C99.0498 21.1198 98.7321 21.4805 98.3232 21.7383C97.917 21.9961 97.443 22.125 96.9014 22.125ZM96.9014 21.2969C97.3128 21.2969 97.6514 21.1914 97.917 20.9805C98.1826 20.7695 98.3792 20.4922 98.5068 20.1484C98.6344 19.8047 98.6982 19.4323 98.6982 19.0312C98.6982 18.6302 98.6344 18.2565 98.5068 17.9102C98.3792 17.5638 98.1826 17.2839 97.917 17.0703C97.6514 16.8568 97.3128 16.75 96.9014 16.75C96.4899 16.75 96.1514 16.8568 95.8857 17.0703C95.6201 17.2839 95.4235 17.5638 95.2959 17.9102C95.1683 18.2565 95.1045 18.6302 95.1045 19.0312C95.1045 19.4323 95.1683 19.8047 95.2959 20.1484C95.4235 20.4922 95.6201 20.7695 95.8857 20.9805C96.1514 21.1914 96.4899 21.2969 96.9014 21.2969ZM103.449 24.375C103.004 24.375 102.621 24.3177 102.301 24.2031C101.98 24.0911 101.714 23.9427 101.5 23.7578C101.289 23.5755 101.121 23.3802 100.996 23.1719L101.73 22.6563C101.814 22.7656 101.919 22.8906 102.047 23.0312C102.174 23.1745 102.349 23.2982 102.57 23.4023C102.794 23.5091 103.087 23.5625 103.449 23.5625C103.934 23.5625 104.333 23.4453 104.648 23.2109C104.964 22.9766 105.121 22.6094 105.121 22.1094V20.8906H105.043C104.975 21 104.879 21.1354 104.754 21.2969C104.632 21.4557 104.454 21.5977 104.223 21.7227C103.993 21.8451 103.684 21.9062 103.293 21.9062C102.809 21.9062 102.374 21.7917 101.988 21.5625C101.605 21.3333 101.302 21 101.078 20.5625C100.857 20.125 100.746 19.5937 100.746 18.9687C100.746 18.3542 100.854 17.819 101.07 17.3633C101.286 16.9049 101.587 16.5508 101.973 16.3008C102.358 16.0482 102.803 15.9219 103.309 15.9219C103.699 15.9219 104.009 15.987 104.238 16.1172C104.47 16.2448 104.647 16.3906 104.77 16.5547C104.895 16.7161 104.991 16.849 105.059 16.9531H105.152V16H106.043V22.1719C106.043 22.6875 105.926 23.1068 105.691 23.4297C105.46 23.7552 105.147 23.9935 104.754 24.1445C104.363 24.2982 103.928 24.375 103.449 24.375ZM103.418 21.0781C103.788 21.0781 104.1 20.9935 104.355 20.8242C104.611 20.6549 104.805 20.4115 104.938 20.0938C105.07 19.776 105.137 19.3958 105.137 18.9531C105.137 18.5208 105.072 18.1393 104.941 17.8086C104.811 17.4779 104.618 17.2187 104.363 17.0312C104.108 16.8437 103.793 16.75 103.418 16.75C103.027 16.75 102.702 16.849 102.441 17.0469C102.184 17.2448 101.99 17.5104 101.859 17.8438C101.732 18.1771 101.668 18.5469 101.668 18.9531C101.668 19.3698 101.733 19.7383 101.863 20.0586C101.996 20.3763 102.191 20.6263 102.449 20.8086C102.71 20.9883 103.033 21.0781 103.418 21.0781ZM110.168 22.125C109.626 22.125 109.151 21.9961 108.742 21.7383C108.336 21.4805 108.018 21.1198 107.789 20.6562C107.563 20.1927 107.449 19.651 107.449 19.0312C107.449 18.4062 107.563 17.8607 107.789 17.3945C108.018 16.9284 108.336 16.5664 108.742 16.3086C109.151 16.0508 109.626 15.9219 110.168 15.9219C110.71 15.9219 111.184 16.0508 111.59 16.3086C111.999 16.5664 112.316 16.9284 112.543 17.3945C112.772 17.8607 112.887 18.4062 112.887 19.0312C112.887 19.651 112.772 20.1927 112.543 20.6562C112.316 21.1198 111.999 21.4805 111.59 21.7383C111.184 21.9961 110.71 22.125 110.168 22.125ZM110.168 21.2969C110.579 21.2969 110.918 21.1914 111.184 20.9805C111.449 20.7695 111.646 20.4922 111.773 20.1484C111.901 19.8047 111.965 19.4323 111.965 19.0312C111.965 18.6302 111.901 18.2565 111.773 17.9102C111.646 17.5638 111.449 17.2839 111.184 17.0703C110.918 16.8568 110.579 16.75 110.168 16.75C109.757 16.75 109.418 16.8568 109.152 17.0703C108.887 17.2839 108.69 17.5638 108.562 17.9102C108.435 18.2565 108.371 18.6302 108.371 19.0312C108.371 19.4323 108.435 19.8047 108.562 20.1484C108.69 20.4922 108.887 20.7695 109.152 20.9805C109.418 21.1914 109.757 21.2969 110.168 21.2969Z" fill="white"/>
</svg>
